<?xml version="1.0" standalone="no"?>
<!DOCTYPE svg PUBLIC "-//W3C//DTD SVG 20010904//EN"
 "http://www.w3.org/TR/2001/REC-SVG-20010904/DTD/svg10.dtd">
<svg version="1.0" xmlns="http://www.w3.org/2000/svg"
 width="400.000000pt" height="63.000000pt" viewBox="0 0 400.000000 63.000000"
 preserveAspectRatio="xMidYMid meet">

<g transform="translate(0.000000,63.000000) scale(0.100000,-0.100000)"
fill="#000000" stroke="none">
<path d="M2852 609 c-30 -11 -46 -37 -33 -52 6 -8 8 -17 5 -20 -11 -10 -14
-216 -4 -222 7 -4 6 -13 0 -25 -6 -11 -8 -49 -5 -86 6 -81 29 -107 87 -100 22
2 39 -1 42 -8 3 -7 9 -5 16 6 9 14 22 17 66 14 31 -2 58 -7 61 -10 12 -12 64
-6 69 8 3 8 14 16 25 19 10 3 22 13 25 24 4 10 13 25 21 35 14 16 25 68 24
118 0 14 0 42 0 62 0 27 -6 41 -21 50 -11 7 -20 19 -20 26 0 23 -88 55 -133
49 -53 -7 -90 9 -77 34 7 12 6 20 0 24 -8 5 -8 11 0 20 9 11 6 17 -12 27 -24
14 -106 18 -136 7z m208 -239 c18 -11 16 -88 -3 -107 -11 -11 -19 -12 -40 -2
-23 10 -27 18 -27 54 0 57 29 81 70 55z"/>
<path d="M3318 595 c-12 -16 -15 -53 -15 -178 0 -87 4 -160 8 -163 5 -3 4 -14
-2 -26 -23 -43 22 -138 58 -124 9 4 22 1 30 -6 12 -10 17 -9 27 3 6 9 17 14
23 12 7 -3 18 8 25 24 15 35 20 141 8 164 -5 9 -7 19 -3 22 10 11 12 71 2 84
-7 7 -6 14 1 18 13 8 13 68 -1 82 -8 8 -8 13 0 17 20 13 12 54 -16 76 -36 28
-122 25 -145 -5z"/>
<path d="M2436 603 c-4 -4 -21 -6 -39 -5 -45 4 -97 -45 -67 -63 6 -4 6 -15 0
-30 -6 -16 -6 -34 0 -50 5 -13 6 -26 1 -29 -11 -7 -11 -135 0 -141 5 -4 5 -13
-1 -24 -10 -20 -9 -121 2 -121 3 0 4 -8 2 -17 -6 -24 47 -47 87 -39 18 3 29 1
29 -6 0 -7 7 -5 18 5 21 19 41 23 66 12 11 -5 26 -4 35 2 11 7 22 6 38 -4 17
-11 27 -12 42 -3 12 6 21 15 21 19 0 5 9 11 20 14 11 3 25 16 30 29 6 12 17
34 26 48 8 14 12 34 10 44 -3 11 0 26 5 32 6 8 7 23 3 36 -4 13 -7 37 -5 53 1
23 -7 39 -35 68 -20 20 -41 38 -48 39 -22 2 -31 5 -48 12 -10 5 -32 3 -49 -3
-24 -8 -35 -7 -55 6 -19 12 -22 19 -13 29 9 11 9 18 0 28 -9 11 -9 15 1 19 9
3 5 11 -12 25 -26 22 -51 28 -64 15z m143 -265 c11 -29 3 -84 -14 -98 -9 -8
-21 -7 -39 2 -23 10 -27 17 -25 47 4 51 16 71 45 71 16 0 27 -7 33 -22z"/>
<path d="M1950 591 c-8 -6 -26 -7 -41 -4 -19 4 -33 -2 -53 -21 -29 -29 -30
-34 -17 -55 6 -8 6 -24 0 -38 -5 -14 -5 -33 1 -48 5 -13 5 -27 1 -29 -11 -7
-12 -144 -1 -151 4 -3 3 -18 -3 -34 -8 -22 -8 -36 1 -55 7 -16 8 -26 1 -28
-15 -5 1 -58 17 -58 8 0 14 -5 14 -11 0 -8 15 -10 45 -7 28 4 45 2 45 -5 0 -5
8 -3 18 6 21 19 41 23 66 12 11 -5 26 -4 37 3 11 7 20 8 24 2 9 -15 65 -12 71
4 3 8 14 16 25 19 10 3 22 13 25 24 4 10 14 26 22 35 8 9 15 30 17 45 1 15 5
38 9 50 4 12 3 31 -3 41 -5 10 -6 24 -2 31 13 20 3 43 -34 83 -40 44 -105 66
-149 50 -22 -9 -33 -8 -52 5 -15 10 -21 20 -16 27 18 24 7 74 -20 95 -30 24
-28 24 -48 12z m142 -295 c5 -82 -13 -114 -55 -95 -23 10 -27 18 -27 53 0 48
8 62 35 68 30 6 45 -2 47 -26z"/>
<path d="M87 573 c-4 -3 -7 -15 -7 -25 0 -10 -4 -18 -9 -18 -16 0 -23 -38 -12
-59 8 -14 8 -21 -2 -24 -9 -3 -9 -7 0 -17 9 -9 9 -17 0 -31 -8 -13 -8 -24 1
-43 9 -20 9 -26 0 -26 -9 0 -9 -3 -1 -11 9 -9 8 -18 -4 -35 -13 -21 -13 -27 0
-53 11 -22 12 -31 3 -34 -8 -3 -8 -8 1 -19 9 -10 9 -18 2 -25 -12 -12 4 -53
21 -53 5 0 10 -12 12 -28 2 -22 8 -27 33 -29 17 0 39 -4 50 -8 14 -4 30 3 53
24 27 24 33 35 30 62 -3 27 2 35 29 50 26 15 32 15 37 3 7 -18 53 -18 63 0 4
8 19 16 33 18 17 2 25 10 26 23 1 11 5 28 9 38 10 24 0 46 -29 57 -13 5 -27
13 -30 19 -4 5 -29 9 -57 9 -56 -2 -80 13 -63 39 7 12 25 17 57 18 26 0 47 -3
47 -7 0 -5 7 -8 15 -8 8 0 15 6 15 13 0 8 3 8 9 -2 11 -17 41 -7 41 13 0 7 7
17 16 20 10 4 14 16 13 33 -2 16 0 34 4 41 10 15 0 32 -18 32 -8 0 -19 9 -25
20 -12 22 -68 28 -86 10 -8 -8 -15 -6 -24 5 -14 17 -46 20 -55 5 -5 -8 -11 -7
-21 1 -11 9 -21 9 -39 1 -15 -7 -26 -8 -30 -2 -8 13 -48 13 -62 -1 -8 -8 -13
-8 -17 0 -8 12 -20 14 -29 4z"/>
<path d="M3618 450 c-26 -16 -49 -38 -53 -50 -3 -11 -13 -20 -21 -20 -16 0
-19 -16 -4 -25 6 -4 5 -13 -2 -25 -10 -15 -10 -27 0 -53 7 -18 12 -43 12 -55
0 -12 9 -31 19 -41 11 -11 21 -27 23 -37 2 -11 12 -20 22 -22 11 -2 27 -14 37
-26 15 -18 21 -19 37 -9 16 9 24 9 38 -2 23 -17 64 -19 64 -4 0 8 4 8 15 -1
15 -12 55 -5 55 11 0 5 9 9 19 9 11 0 29 13 40 29 l21 29 -25 26 c-25 27 -40
32 -50 17 -3 -5 -17 -6 -33 -2 -15 5 -37 5 -49 0 -18 -6 -25 -4 -33 11 -9 16
-7 20 7 21 33 2 108 -1 138 -6 45 -8 60 7 60 60 0 33 -5 50 -17 59 -10 7 -18
20 -18 29 0 19 -73 79 -115 95 -56 21 -136 14 -187 -18z m146 -86 c10 -25 7
-31 -16 -37 -31 -9 -39 0 -26 28 13 28 33 33 42 9z"/>
<path d="M1556 421 c-3 -4 -16 -6 -28 -4 -27 5 -114 -57 -123 -88 -4 -11 -16
-28 -27 -39 -17 -15 -19 -22 -9 -34 8 -10 9 -16 1 -21 -13 -8 -13 -52 0 -60 6
-3 10 -19 10 -34 0 -15 9 -36 20 -46 11 -10 20 -24 20 -32 0 -12 12 -17 36
-14 7 1 14 -5 18 -14 6 -17 37 -20 52 -5 8 8 19 7 38 -1 21 -10 32 -10 46 -1
11 6 26 9 34 6 8 -3 24 4 35 15 12 12 27 21 35 21 8 0 24 14 36 31 21 29 21
31 5 50 -19 20 -50 25 -60 9 -3 -5 -16 -9 -28 -8 -12 1 -37 -2 -54 -6 -26 -6
-33 -4 -33 8 0 14 24 24 60 25 51 1 112 16 129 33 26 23 27 67 4 99 -10 13
-23 33 -29 44 -6 11 -23 26 -37 33 -15 7 -27 18 -27 23 0 6 -9 8 -19 4 -11 -3
-22 -1 -26 5 -8 12 -72 14 -79 1z m39 -122 c4 -12 2 -26 -4 -32 -6 -6 -11 -7
-11 -1 0 5 -4 3 -9 -5 -16 -25 -30 -3 -18 29 13 35 33 39 42 9z"/>
<path d="M546 391 c-9 -10 -16 -22 -15 -27 1 -5 -1 -22 -6 -38 -5 -18 -4 -36
3 -47 8 -12 8 -20 2 -24 -13 -8 -13 -48 1 -62 8 -8 8 -13 0 -17 -15 -10 -14
-62 2 -78 6 -7 17 -26 22 -43 6 -17 18 -30 27 -30 9 0 20 -4 24 -8 12 -12 44
-8 76 11 22 13 28 23 25 40 -2 12 -1 22 3 22 4 0 8 28 8 62 1 67 9 78 58 78
41 0 84 21 84 42 0 9 5 20 10 23 16 10 11 73 -7 95 -18 21 -77 28 -87 11 -7
-11 -94 -13 -100 -2 -3 4 -29 8 -59 9 -42 1 -59 -3 -71 -17z"/>
<path d="M1096 402 c-3 -5 -18 -7 -34 -4 -24 3 -38 -5 -80 -46 -29 -27 -52
-56 -52 -66 0 -9 -6 -16 -13 -16 -15 0 -22 -96 -8 -115 4 -5 8 -21 9 -35 1
-14 10 -32 22 -42 11 -9 20 -23 20 -32 0 -10 9 -16 25 -16 14 0 25 -4 25 -9 0
-15 30 -22 50 -11 13 7 27 7 44 -1 14 -7 33 -8 43 -4 10 4 27 7 39 6 11 -1 27
5 34 13 7 9 18 16 25 16 6 0 24 14 39 31 26 29 27 31 10 50 -18 20 -59 26 -69
9 -3 -5 -12 -7 -20 -4 -8 4 -29 1 -47 -5 -24 -9 -33 -8 -39 1 -12 18 22 37 57
31 17 -3 34 0 38 5 4 6 13 9 21 5 9 -3 30 -2 49 1 29 6 35 12 40 40 4 18 2 44
-4 57 -28 62 -65 109 -85 109 -7 0 -15 7 -19 15 -3 8 -12 12 -20 9 -8 -3 -17
-1 -21 5 -7 13 -71 15 -79 3z m38 -129 c7 -18 -17 -43 -41 -43 -16 0 -16 2 -1
35 13 29 33 33 42 8z"/>
</g>
</svg>
